<mxfile host="65bd71144e">
    <diagram id="mYibVGyzT6hVzNFoOZ4g" name="Page-1">
        <mxGraphModel dx="2377" dy="570" grid="1" gridSize="10" guides="1" tooltips="1" connect="1" arrows="1" fold="1" page="1" pageScale="1" pageWidth="850" pageHeight="1100" background="#ffffff" math="0" shadow="1">
            <root>
                <mxCell id="0"/>
                <mxCell id="1" parent="0"/>
                <mxCell id="8" value="" style="group" parent="1" vertex="1" connectable="0">
                    <mxGeometry x="-1560" y="210" width="400" height="490" as="geometry"/>
                </mxCell>
                <mxCell id="2" value="CONNECT_PLAYER_ONE&lt;br&gt;CONNECT_PLAYER_TWO&lt;br&gt;DISCONNECT_PLAYER_ONE&lt;br&gt;DISCONNECT_PLAYER_TWO&lt;br&gt;PLACE_ITEM&lt;br&gt;REMOVE_ITEM&lt;br&gt;UNLOCK_ITEM&lt;br&gt;SAVE_ITEMS&lt;br&gt;SAVE_POSITION&lt;br&gt;LOAD_ITEMS&lt;br&gt;LOAD_POSITION&lt;br&gt;UNLOCK_POSITION&lt;br&gt;UNLOCK_PATH&lt;br&gt;UPDATE_ITEM" style="shape=partialRectangle;html=1;top=1;align=left;dashed=1;" parent="8" vertex="1">
                    <mxGeometry y="60" width="400" height="430" as="geometry"/>
                </mxCell>
                <mxCell id="7" value="" style="group" parent="8" vertex="1" connectable="0">
                    <mxGeometry width="300" height="60" as="geometry"/>
                </mxCell>
                <mxCell id="5" value="" style="rounded=0;whiteSpace=wrap;html=1;" parent="7" vertex="1">
                    <mxGeometry width="300" height="60" as="geometry"/>
                </mxCell>
                <mxCell id="6" value="WebSocket Listener" style="text;html=1;strokeColor=none;fillColor=none;align=center;verticalAlign=middle;whiteSpace=wrap;rounded=0;" parent="7" vertex="1">
                    <mxGeometry x="80" y="15" width="140" height="30" as="geometry"/>
                </mxCell>
                <mxCell id="9" value="" style="group" parent="1" vertex="1" connectable="0">
                    <mxGeometry x="-1120" y="210" width="400" height="490" as="geometry"/>
                </mxCell>
                <mxCell id="10" value="ON_PLACE_IITEM (P1,P2)&lt;br&gt;ON_UNLOCK_ITEM (P2)&lt;br&gt;ON_CONNECT_PLAYER_ONE (P2)&lt;br&gt;ON_CONNECT_PLAYER_TWO (P1)&lt;br&gt;WAIT_FOR_PLAYER_ONE (P2)&lt;br&gt;WAIT_FOR_PLAYER_TWO (P1)&lt;br&gt;ON_REMOVE_ITEM (P1,P2)&lt;br&gt;ON_UNLOCK_PATH (P1,P2)&lt;br&gt;ON_LOAD_ITEM (P2)&lt;br&gt;On_LOAD_POSITION (P1)&lt;br&gt;ON_LOCK_POSITION (P2)&lt;br&gt;ON_UPDATE_ITEM (P1,P2)" style="shape=partialRectangle;html=1;top=1;align=left;dashed=1;" parent="9" vertex="1">
                    <mxGeometry y="60" width="400" height="430" as="geometry"/>
                </mxCell>
                <mxCell id="11" value="" style="group" parent="9" vertex="1" connectable="0">
                    <mxGeometry width="300" height="60" as="geometry"/>
                </mxCell>
                <mxCell id="12" value="" style="rounded=0;whiteSpace=wrap;html=1;" parent="11" vertex="1">
                    <mxGeometry width="300" height="60" as="geometry"/>
                </mxCell>
                <mxCell id="13" value="Client Listener" style="text;html=1;strokeColor=none;fillColor=none;align=center;verticalAlign=middle;whiteSpace=wrap;rounded=0;" parent="11" vertex="1">
                    <mxGeometry x="80" y="15" width="140" height="30" as="geometry"/>
                </mxCell>
                <mxCell id="14" value="" style="group" parent="1" vertex="1" connectable="0">
                    <mxGeometry x="-690" y="210" width="400" height="490" as="geometry"/>
                </mxCell>
                <mxCell id="15" value="" style="shape=partialRectangle;html=1;top=1;align=left;dashed=1;" parent="14" vertex="1">
                    <mxGeometry y="60" width="400" height="430" as="geometry"/>
                </mxCell>
                <mxCell id="16" value="" style="group" parent="14" vertex="1" connectable="0">
                    <mxGeometry width="300" height="60" as="geometry"/>
                </mxCell>
                <mxCell id="17" value="" style="rounded=0;whiteSpace=wrap;html=1;" parent="16" vertex="1">
                    <mxGeometry width="300" height="60" as="geometry"/>
                </mxCell>
                <mxCell id="18" value="Api Endpoints" style="text;html=1;strokeColor=none;fillColor=none;align=center;verticalAlign=middle;whiteSpace=wrap;rounded=0;" parent="16" vertex="1">
                    <mxGeometry x="80" y="15" width="140" height="30" as="geometry"/>
                </mxCell>
                <mxCell id="19" value="DB" style="shape=table;startSize=30;container=1;collapsible=0;childLayout=tableLayout;fixedRows=1;rowLines=0;fontStyle=1;" parent="1" vertex="1">
                    <mxGeometry x="-280" y="340" width="270" height="480" as="geometry"/>
                </mxCell>
                <mxCell id="20" value="" style="shape=tableRow;horizontal=0;startSize=0;swimlaneHead=0;swimlaneBody=0;top=0;left=0;bottom=0;right=0;collapsible=0;dropTarget=0;fillColor=none;points=[[0,0.5],[1,0.5]];portConstraint=eastwest;" parent="19" vertex="1">
                    <mxGeometry y="30" width="270" height="30" as="geometry"/>
                </mxCell>
                <mxCell id="21" value="Items" style="shape=partialRectangle;html=1;whiteSpace=wrap;connectable=0;fillColor=default;top=0;left=0;bottom=0;right=0;overflow=hidden;pointerEvents=1;strokeColor=#000000;" parent="20" vertex="1">
                    <mxGeometry width="106" height="30" as="geometry">
                        <mxRectangle width="106" height="30" as="alternateBounds"/>
                    </mxGeometry>
                </mxCell>
                <mxCell id="22" value="[ ]" style="shape=partialRectangle;html=1;whiteSpace=wrap;connectable=0;fillColor=default;top=0;left=0;bottom=0;right=0;align=left;spacingLeft=6;overflow=hidden;strokeColor=#000000;" parent="20" vertex="1">
                    <mxGeometry x="106" width="164" height="30" as="geometry">
                        <mxRectangle width="164" height="30" as="alternateBounds"/>
                    </mxGeometry>
                </mxCell>
                <mxCell id="23" value="" style="shape=tableRow;horizontal=0;startSize=0;swimlaneHead=0;swimlaneBody=0;top=0;left=0;bottom=0;right=0;collapsible=0;dropTarget=0;fillColor=none;points=[[0,0.5],[1,0.5]];portConstraint=eastwest;" parent="19" vertex="1">
                    <mxGeometry y="60" width="270" height="30" as="geometry"/>
                </mxCell>
                <mxCell id="24" value="Available_Items" style="shape=partialRectangle;html=1;whiteSpace=wrap;connectable=0;fillColor=default;top=0;left=0;bottom=0;right=0;overflow=hidden;strokeColor=#000000;" parent="23" vertex="1">
                    <mxGeometry width="106" height="30" as="geometry">
                        <mxRectangle width="106" height="30" as="alternateBounds"/>
                    </mxGeometry>
                </mxCell>
                <mxCell id="25" value="[ ]" style="shape=partialRectangle;html=1;whiteSpace=wrap;connectable=0;fillColor=default;top=0;left=0;bottom=0;right=0;align=left;spacingLeft=6;overflow=hidden;strokeColor=#000000;" parent="23" vertex="1">
                    <mxGeometry x="106" width="164" height="30" as="geometry">
                        <mxRectangle width="164" height="30" as="alternateBounds"/>
                    </mxGeometry>
                </mxCell>
                <mxCell id="26" value="" style="shape=tableRow;horizontal=0;startSize=0;swimlaneHead=0;swimlaneBody=0;top=0;left=0;bottom=0;right=0;collapsible=0;dropTarget=0;fillColor=none;points=[[0,0.5],[1,0.5]];portConstraint=eastwest;" parent="19" vertex="1">
                    <mxGeometry y="90" width="270" height="30" as="geometry"/>
                </mxCell>
                <mxCell id="27" value="Positions" style="shape=partialRectangle;html=1;whiteSpace=wrap;connectable=0;fillColor=default;top=0;left=0;bottom=0;right=0;overflow=hidden;strokeColor=#000000;" parent="26" vertex="1">
                    <mxGeometry width="106" height="30" as="geometry">
                        <mxRectangle width="106" height="30" as="alternateBounds"/>
                    </mxGeometry>
                </mxCell>
                <mxCell id="28" value="Value 3" style="shape=partialRectangle;html=1;whiteSpace=wrap;connectable=0;fillColor=default;top=0;left=0;bottom=0;right=0;align=left;spacingLeft=6;overflow=hidden;strokeColor=#000000;" parent="26" vertex="1">
                    <mxGeometry x="106" width="164" height="30" as="geometry">
                        <mxRectangle width="164" height="30" as="alternateBounds"/>
                    </mxGeometry>
                </mxCell>
                <mxCell id="29" value="" style="shape=tableRow;horizontal=0;startSize=0;swimlaneHead=0;swimlaneBody=0;top=0;left=0;bottom=0;right=0;collapsible=0;dropTarget=0;fillColor=none;points=[[0,0.5],[1,0.5]];portConstraint=eastwest;" parent="19" vertex="1">
                    <mxGeometry y="120" width="270" height="30" as="geometry"/>
                </mxCell>
                <mxCell id="30" value="Unlocked_Paths" style="shape=partialRectangle;html=1;whiteSpace=wrap;connectable=0;fillColor=default;top=0;left=0;bottom=0;right=0;overflow=hidden;strokeColor=#000000;" parent="29" vertex="1">
                    <mxGeometry width="106" height="30" as="geometry">
                        <mxRectangle width="106" height="30" as="alternateBounds"/>
                    </mxGeometry>
                </mxCell>
                <mxCell id="31" value="Value 3" style="shape=partialRectangle;html=1;whiteSpace=wrap;connectable=0;fillColor=default;top=0;left=0;bottom=0;right=0;align=left;spacingLeft=6;overflow=hidden;strokeColor=#000000;" parent="29" vertex="1">
                    <mxGeometry x="106" width="164" height="30" as="geometry">
                        <mxRectangle width="164" height="30" as="alternateBounds"/>
                    </mxGeometry>
                </mxCell>
                <mxCell id="32" value="" style="shape=tableRow;horizontal=0;startSize=0;swimlaneHead=0;swimlaneBody=0;top=0;left=0;bottom=0;right=0;collapsible=0;dropTarget=0;fillColor=none;points=[[0,0.5],[1,0.5]];portConstraint=eastwest;" parent="19" vertex="1">
                    <mxGeometry y="150" width="270" height="30" as="geometry"/>
                </mxCell>
                <mxCell id="33" value="Available_Positions" style="shape=partialRectangle;html=1;whiteSpace=wrap;connectable=0;fillColor=default;top=0;left=0;bottom=0;right=0;overflow=hidden;strokeColor=#000000;" parent="32" vertex="1">
                    <mxGeometry width="106" height="30" as="geometry">
                        <mxRectangle width="106" height="30" as="alternateBounds"/>
                    </mxGeometry>
                </mxCell>
                <mxCell id="34" value="Value 3" style="shape=partialRectangle;html=1;whiteSpace=wrap;connectable=0;fillColor=default;top=0;left=0;bottom=0;right=0;align=left;spacingLeft=6;overflow=hidden;strokeColor=#000000;" parent="32" vertex="1">
                    <mxGeometry x="106" width="164" height="30" as="geometry">
                        <mxRectangle width="164" height="30" as="alternateBounds"/>
                    </mxGeometry>
                </mxCell>
                <mxCell id="35" value="" style="shape=tableRow;horizontal=0;startSize=0;swimlaneHead=0;swimlaneBody=0;top=0;left=0;bottom=0;right=0;collapsible=0;dropTarget=0;fillColor=none;points=[[0,0.5],[1,0.5]];portConstraint=eastwest;" parent="19" vertex="1">
                    <mxGeometry y="180" width="270" height="30" as="geometry"/>
                </mxCell>
                <mxCell id="36" value="Avatar_Position" style="shape=partialRectangle;html=1;whiteSpace=wrap;connectable=0;fillColor=default;top=0;left=0;bottom=0;right=0;overflow=hidden;strokeColor=#000000;" parent="35" vertex="1">
                    <mxGeometry width="106" height="30" as="geometry">
                        <mxRectangle width="106" height="30" as="alternateBounds"/>
                    </mxGeometry>
                </mxCell>
                <mxCell id="37" value="Value 3" style="shape=partialRectangle;html=1;whiteSpace=wrap;connectable=0;fillColor=default;top=0;left=0;bottom=0;right=0;align=left;spacingLeft=6;overflow=hidden;strokeColor=#000000;" parent="35" vertex="1">
                    <mxGeometry x="106" width="164" height="30" as="geometry">
                        <mxRectangle width="164" height="30" as="alternateBounds"/>
                    </mxGeometry>
                </mxCell>
                <mxCell id="38" value="" style="shape=tableRow;horizontal=0;startSize=0;swimlaneHead=0;swimlaneBody=0;top=0;left=0;bottom=0;right=0;collapsible=0;dropTarget=0;fillColor=none;points=[[0,0.5],[1,0.5]];portConstraint=eastwest;" parent="19" vertex="1">
                    <mxGeometry y="210" width="270" height="30" as="geometry"/>
                </mxCell>
                <mxCell id="39" value="Avatar_Rotation" style="shape=partialRectangle;html=1;whiteSpace=wrap;connectable=0;fillColor=default;top=0;left=0;bottom=0;right=0;overflow=hidden;strokeColor=#000000;" parent="38" vertex="1">
                    <mxGeometry width="106" height="30" as="geometry">
                        <mxRectangle width="106" height="30" as="alternateBounds"/>
                    </mxGeometry>
                </mxCell>
                <mxCell id="40" value="Value 3" style="shape=partialRectangle;html=1;whiteSpace=wrap;connectable=0;fillColor=default;top=0;left=0;bottom=0;right=0;align=left;spacingLeft=6;overflow=hidden;strokeColor=#000000;" parent="38" vertex="1">
                    <mxGeometry x="106" width="164" height="30" as="geometry">
                        <mxRectangle width="164" height="30" as="alternateBounds"/>
                    </mxGeometry>
                </mxCell>
                <mxCell id="96" value="" style="shape=tableRow;horizontal=0;startSize=0;swimlaneHead=0;swimlaneBody=0;top=0;left=0;bottom=0;right=0;collapsible=0;dropTarget=0;fillColor=none;points=[[0,0.5],[1,0.5]];portConstraint=eastwest;" parent="19" vertex="1">
                    <mxGeometry y="240" width="270" height="30" as="geometry"/>
                </mxCell>
                <mxCell id="97" value="Camera_Position" style="shape=partialRectangle;html=1;whiteSpace=wrap;connectable=0;fillColor=default;top=0;left=0;bottom=0;right=0;overflow=hidden;strokeColor=#000000;" parent="96" vertex="1">
                    <mxGeometry width="106" height="30" as="geometry">
                        <mxRectangle width="106" height="30" as="alternateBounds"/>
                    </mxGeometry>
                </mxCell>
                <mxCell id="98" value="Value 3" style="shape=partialRectangle;html=1;whiteSpace=wrap;connectable=0;fillColor=default;top=0;left=0;bottom=0;right=0;align=left;spacingLeft=6;overflow=hidden;strokeColor=#000000;" parent="96" vertex="1">
                    <mxGeometry x="106" width="164" height="30" as="geometry">
                        <mxRectangle width="164" height="30" as="alternateBounds"/>
                    </mxGeometry>
                </mxCell>
                <mxCell id="99" value="" style="shape=tableRow;horizontal=0;startSize=0;swimlaneHead=0;swimlaneBody=0;top=0;left=0;bottom=0;right=0;collapsible=0;dropTarget=0;fillColor=none;points=[[0,0.5],[1,0.5]];portConstraint=eastwest;" parent="19" vertex="1">
                    <mxGeometry y="270" width="270" height="30" as="geometry"/>
                </mxCell>
                <mxCell id="100" value="Camera_Rotation" style="shape=partialRectangle;html=1;whiteSpace=wrap;connectable=0;fillColor=default;top=0;left=0;bottom=0;right=0;overflow=hidden;strokeColor=#000000;" parent="99" vertex="1">
                    <mxGeometry width="106" height="30" as="geometry">
                        <mxRectangle width="106" height="30" as="alternateBounds"/>
                    </mxGeometry>
                </mxCell>
                <mxCell id="101" value="Value 3" style="shape=partialRectangle;html=1;whiteSpace=wrap;connectable=0;fillColor=default;top=0;left=0;bottom=0;right=0;align=left;spacingLeft=6;overflow=hidden;strokeColor=#000000;" parent="99" vertex="1">
                    <mxGeometry x="106" width="164" height="30" as="geometry">
                        <mxRectangle width="164" height="30" as="alternateBounds"/>
                    </mxGeometry>
                </mxCell>
                <mxCell id="41" value="" style="shape=tableRow;horizontal=0;startSize=0;swimlaneHead=0;swimlaneBody=0;top=0;left=0;bottom=0;right=0;collapsible=0;dropTarget=0;fillColor=none;points=[[0,0.5],[1,0.5]];portConstraint=eastwest;" parent="19" vertex="1">
                    <mxGeometry y="300" width="270" height="30" as="geometry"/>
                </mxCell>
                <mxCell id="42" value="Placed_Items" style="shape=partialRectangle;html=1;whiteSpace=wrap;connectable=0;fillColor=default;top=0;left=0;bottom=0;right=0;overflow=hidden;strokeColor=#000000;" parent="41" vertex="1">
                    <mxGeometry width="106" height="30" as="geometry">
                        <mxRectangle width="106" height="30" as="alternateBounds"/>
                    </mxGeometry>
                </mxCell>
                <mxCell id="43" value="[ ]" style="shape=partialRectangle;html=1;whiteSpace=wrap;connectable=0;fillColor=default;top=0;left=0;bottom=0;right=0;align=left;spacingLeft=6;overflow=hidden;strokeColor=#000000;" parent="41" vertex="1">
                    <mxGeometry x="106" width="164" height="30" as="geometry">
                        <mxRectangle width="164" height="30" as="alternateBounds"/>
                    </mxGeometry>
                </mxCell>
                <mxCell id="44" value="" style="shape=tableRow;horizontal=0;startSize=0;swimlaneHead=0;swimlaneBody=0;top=0;left=0;bottom=0;right=0;collapsible=0;dropTarget=0;fillColor=none;points=[[0,0.5],[1,0.5]];portConstraint=eastwest;" parent="19" vertex="1">
                    <mxGeometry y="330" width="270" height="30" as="geometry"/>
                </mxCell>
                <mxCell id="45" value="Positions" style="shape=partialRectangle;html=1;whiteSpace=wrap;connectable=0;fillColor=default;top=0;left=0;bottom=0;right=0;overflow=hidden;strokeColor=#000000;" parent="44" vertex="1">
                    <mxGeometry width="106" height="30" as="geometry">
                        <mxRectangle width="106" height="30" as="alternateBounds"/>
                    </mxGeometry>
                </mxCell>
                <mxCell id="46" value="Value 3" style="shape=partialRectangle;html=1;whiteSpace=wrap;connectable=0;fillColor=default;top=0;left=0;bottom=0;right=0;align=left;spacingLeft=6;overflow=hidden;strokeColor=#000000;" parent="44" vertex="1">
                    <mxGeometry x="106" width="164" height="30" as="geometry">
                        <mxRectangle width="164" height="30" as="alternateBounds"/>
                    </mxGeometry>
                </mxCell>
                <mxCell id="47" value="" style="shape=tableRow;horizontal=0;startSize=0;swimlaneHead=0;swimlaneBody=0;top=0;left=0;bottom=0;right=0;collapsible=0;dropTarget=0;fillColor=none;points=[[0,0.5],[1,0.5]];portConstraint=eastwest;" parent="19" vertex="1">
                    <mxGeometry y="360" width="270" height="30" as="geometry"/>
                </mxCell>
                <mxCell id="48" value="Positions" style="shape=partialRectangle;html=1;whiteSpace=wrap;connectable=0;fillColor=default;top=0;left=0;bottom=0;right=0;overflow=hidden;strokeColor=#000000;" parent="47" vertex="1">
                    <mxGeometry width="106" height="30" as="geometry">
                        <mxRectangle width="106" height="30" as="alternateBounds"/>
                    </mxGeometry>
                </mxCell>
                <mxCell id="49" value="Value 3" style="shape=partialRectangle;html=1;whiteSpace=wrap;connectable=0;fillColor=default;top=0;left=0;bottom=0;right=0;align=left;spacingLeft=6;overflow=hidden;strokeColor=#000000;" parent="47" vertex="1">
                    <mxGeometry x="106" width="164" height="30" as="geometry">
                        <mxRectangle width="164" height="30" as="alternateBounds"/>
                    </mxGeometry>
                </mxCell>
                <mxCell id="50" value="Item" style="swimlane;fontStyle=1;align=center;verticalAlign=top;childLayout=stackLayout;horizontal=1;startSize=26;horizontalStack=0;resizeParent=1;resizeParentMax=0;resizeLast=0;collapsible=1;marginBottom=0;strokeColor=#000000;fillColor=default;" parent="1" vertex="1">
                    <mxGeometry x="160" y="355" width="160" height="60" as="geometry"/>
                </mxCell>
                <mxCell id="51" value="+ field: type" style="text;strokeColor=none;fillColor=default;align=left;verticalAlign=top;spacingLeft=4;spacingRight=4;overflow=hidden;rotatable=0;points=[[0,0.5],[1,0.5]];portConstraint=eastwest;" parent="50" vertex="1">
                    <mxGeometry y="26" width="160" height="26" as="geometry"/>
                </mxCell>
                <mxCell id="52" value="" style="line;strokeWidth=1;fillColor=none;align=left;verticalAlign=middle;spacingTop=-1;spacingLeft=3;spacingRight=3;rotatable=0;labelPosition=right;points=[];portConstraint=eastwest;strokeColor=inherit;" parent="50" vertex="1">
                    <mxGeometry y="52" width="160" height="8" as="geometry"/>
                </mxCell>
                <mxCell id="54" value="Placed_Items" style="swimlane;fontStyle=1;align=center;verticalAlign=top;childLayout=stackLayout;horizontal=1;startSize=26;horizontalStack=0;resizeParent=1;resizeParentMax=0;resizeLast=0;collapsible=1;marginBottom=0;strokeColor=#000000;fillColor=default;" parent="1" vertex="1">
                    <mxGeometry x="160" y="612" width="160" height="86" as="geometry"/>
                </mxCell>
                <mxCell id="55" value="+ Rotation: number[]" style="text;strokeColor=none;fillColor=default;align=left;verticalAlign=top;spacingLeft=4;spacingRight=4;overflow=hidden;rotatable=0;points=[[0,0.5],[1,0.5]];portConstraint=eastwest;" parent="54" vertex="1">
                    <mxGeometry y="26" width="160" height="26" as="geometry"/>
                </mxCell>
                <mxCell id="58" value="+ Position: number[]" style="text;strokeColor=none;fillColor=default;align=left;verticalAlign=top;spacingLeft=4;spacingRight=4;overflow=hidden;rotatable=0;points=[[0,0.5],[1,0.5]];portConstraint=eastwest;" parent="54" vertex="1">
                    <mxGeometry y="52" width="160" height="26" as="geometry"/>
                </mxCell>
                <mxCell id="56" value="" style="line;strokeWidth=1;fillColor=none;align=left;verticalAlign=middle;spacingTop=-1;spacingLeft=3;spacingRight=3;rotatable=0;labelPosition=right;points=[];portConstraint=eastwest;strokeColor=inherit;" parent="54" vertex="1">
                    <mxGeometry y="78" width="160" height="8" as="geometry"/>
                </mxCell>
                <mxCell id="59" value="" style="ellipse;html=1;shape=startState;fillColor=#000000;strokeColor=#ff0000;" parent="1" vertex="1">
                    <mxGeometry x="-140" y="640" width="30" height="30" as="geometry"/>
                </mxCell>
                <mxCell id="60" value="" style="edgeStyle=orthogonalEdgeStyle;html=1;verticalAlign=bottom;endArrow=open;endSize=8;strokeColor=#ff0000;" parent="1" source="59" target="54" edge="1">
                    <mxGeometry relative="1" as="geometry">
                        <mxPoint x="-115" y="670" as="targetPoint"/>
                    </mxGeometry>
                </mxCell>
                <mxCell id="62" style="edgeStyle=none;html=1;strokeColor=#CC0000;" parent="1" source="61" target="50" edge="1">
                    <mxGeometry relative="1" as="geometry"/>
                </mxCell>
                <mxCell id="61" value="" style="ellipse;html=1;shape=startState;fillColor=#000000;strokeColor=#ff0000;" parent="1" vertex="1">
                    <mxGeometry x="-140" y="370" width="30" height="30" as="geometry"/>
                </mxCell>
                <mxCell id="64" style="edgeStyle=none;html=1;strokeColor=#CC0000;" parent="1" source="63" target="50" edge="1">
                    <mxGeometry relative="1" as="geometry"/>
                </mxCell>
                <mxCell id="63" value="" style="ellipse;html=1;shape=startState;fillColor=#000000;strokeColor=#ff0000;" parent="1" vertex="1">
                    <mxGeometry x="-140" y="400" width="30" height="30" as="geometry"/>
                </mxCell>
            </root>
        </mxGraphModel>
    </diagram>
</mxfile>